<?xml version="1.0" standalone="no"?>
<!DOCTYPE svg PUBLIC "-//W3C//DTD SVG 20010904//EN"
 "http://www.w3.org/TR/2001/REC-SVG-20010904/DTD/svg10.dtd">
<svg version="1.0" xmlns="http://www.w3.org/2000/svg"
 width="363.000000pt" height="95.000000pt" viewBox="0 0 363.000000 95.000000"
 preserveAspectRatio="xMidYMid meet">

<g transform="translate(0.000000,95.000000) scale(0.100000,-0.100000)"
fill="#000000" stroke="none">
<path d="M844 870 c-202 -27 -399 -157 -472 -312 -41 -84 -51 -148 -27 -168
15 -13 19 -12 31 5 8 10 14 33 14 49 0 38 40 126 81 177 67 85 213 165 351
193 101 21 164 20 215 -3 108 -50 92 -174 -38 -296 -75 -70 -154 -114 -259
-145 -41 -12 -85 -26 -97 -31 -25 -9 -31 -37 -10 -44 40 -15 404 -47 587 -51
241 -6 315 4 315 41 0 16 -6 19 -30 17 -147 -13 -337 -12 -517 3 -112 9 -204
18 -206 20 -2 1 39 23 90 48 228 111 345 305 258 427 -43 60 -154 87 -286 70z"/>
<path d="M2771 702 c-72 -65 -76 -67 -145 -77 -78 -11 -92 -30 -22 -29 l44 0
-45 -53 c-26 -30 -57 -56 -72 -59 -14 -3 -53 -14 -85 -25 -78 -25 -94 -24 -98
4 -3 20 -8 22 -53 19 -27 -2 -74 -10 -103 -18 -50 -14 -53 -14 -74 6 -28 26
-51 25 -145 -5 -91 -29 -103 -30 -103 -10 0 25 -47 28 -120 9 l-69 -18 -19 24
-19 23 -124 -28 c-68 -15 -151 -29 -184 -31 -42 -2 -50 -1 -25 4 23 5 36 14
38 26 5 25 -14 36 -69 36 -59 0 -88 -26 -73 -68 20 -56 84 -64 247 -32 56 12
110 23 120 26 11 3 17 0 17 -10 0 -27 32 -35 85 -20 98 28 122 29 134 5 15
-27 41 -27 132 3 99 32 139 40 139 27 0 -6 -28 -25 -62 -42 -96 -48 -138 -85
-138 -120 0 -33 17 -44 54 -35 42 10 145 87 177 131 32 45 39 48 157 70 29 6
32 5 32 -20 0 -14 7 -28 16 -32 8 -3 55 6 102 21 102 31 106 31 98 10 -9 -22
11 -44 40 -44 12 0 56 13 96 29 70 29 73 29 80 10 9 -24 40 -24 133 0 l70 19
5 -22 c8 -31 40 -31 143 -1 129 38 139 42 135 63 -5 22 -50 19 -136 -9 l-64
-21 -14 21 c-19 26 -41 26 -127 2 -37 -10 -67 -15 -67 -12 0 16 128 132 134
122 4 -6 16 -11 27 -11 21 0 26 29 8 47 -9 9 5 24 55 60 38 28 66 55 66 65 0
33 -36 19 -108 -41 l-70 -60 -75 6 -75 6 51 44 c51 44 66 75 37 80 -8 2 -48
-28 -89 -65z m58 -159 c-36 -40 -55 -51 -107 -66 -35 -9 -77 -24 -92 -32 -71
-37 -66 -12 16 75 l66 70 80 0 81 0 -44 -47z m-789 -186 c0 -5 -87 -67 -95
-67 -13 0 8 21 43 45 34 22 52 30 52 22z"/>
<path d="M2374 686 c-39 -17 -48 -30 -40 -61 12 -47 142 -57 169 -14 7 11 20
19 29 19 22 0 24 33 3 50 -22 19 -125 23 -161 6z m106 -51 c0 -11 -12 -15 -49
-15 -47 0 -68 9 -54 24 3 3 28 6 55 6 36 0 48 -4 48 -15z"/>
<path d="M2155 673 c-28 -7 -55 -33 -55 -54 0 -51 110 -79 150 -39 11 11 26
20 34 20 7 0 19 6 25 14 9 11 8 17 -4 29 -20 21 -113 39 -150 30z m69 -49 c13
-5 14 -9 5 -20 -14 -17 -43 -18 -71 -3 -17 9 -18 13 -7 20 16 10 51 12 73 3z"/>
<path d="M673 503 c-120 -119 -177 -202 -171 -245 6 -40 26 -29 60 34 31 58
158 198 246 272 36 30 38 49 5 54 -16 2 -53 -28 -140 -115z"/>
</g>
</svg>
